<?xml version="1.0" encoding="utf-8"?>
<!-- Generator: Adobe Illustrator 20.0.0, SVG Export Plug-In . SVG Version: 6.00 Build 0)  -->
<svg version="1.1" id="Layer_1" xmlns="http://www.w3.org/2000/svg" xmlns:xlink="http://www.w3.org/1999/xlink" x="0px" y="0px"
	 viewBox="0 0 1366 168.8" style="enable-background:new 0 0 1366 168.8;" xml:space="preserve">
<style type="text/css">
	.st0{fill:#323333;}
</style>
<title>launch_1</title>
<path class="st0" d="M146.6,101.6c-0.9-0.6-1.7-1.3-2.7-2.1l14.9-3.8c-8.9-2.2-12.4,0.1-19.2-9.4c0,0,5.3,2.8,14.7-0.1
	c8.9-2.8-8.8-0.8-13.2-8.2c0,0,8.3,0.6,12.5-2.1c0,0-10.8,2.5-13.7-6.3c0,0,13.7-4.5,8.7-3.9c-17.5,2.2-17.3-24.5-17.3-24.5
	c-0.6,29.2-17.5,24.1-17.5,24.1l7.1,5c0,0-2.6,5-12.5,4.8c-6.9-0.2,8.3,7.5,11.5,3.9c0,0-4.3,6.2-17.4,7.5c0,0,4.7,3.8,14.8,1.3
	c-2,2.5-4.3,4.7-6.8,6.7c-4.1-1-8.2-1.9-12.2-2.9c0.9-0.3,1.8-0.7,2.5-1.3c0,0-7.3,0.4-15.1-8L99,83.6c-6.7-3.8-10.3-3.3-14.4-10.4
	c0,0,0.7,0.8,8.6,0.6c7.5-0.1-5.5-2.1-8.1-7.5c0,0,4.6,1.7,8.2,0.8c0,0-9.6-2.9-7.8-11.2c0,0,7.8,4.8,5.9,1.9
	c-6.9-10.4-7.6-31.7-7.6-31.7C72.6,49.3,63.5,51.4,63.5,51.4l6,1.6c0,0-6.2,7.7-13.6,7.4c-5-0.2,5.2,7.3,8.4,6.2
	c-1.6,1-6.5,3.3-14.9,2.1c0,0,2.3,5.4,10.7,5.6c0,0,1.2,3-8.2,3.4c-6.1-2.3-11.7-4.6-16.8-7c-0.1-0.9-0.3-1.8-0.6-2.7
	c0,0,2.8,2.7,7.2-1.5c0,0-3.3,1.4-8.6-7.8l7.5-3.8c-4.5-2.1-6.2,0.2-9.6-9.4c0,0,2.7,2.8,7.4-0.1c4.4-2.8-4.4-0.8-6.6-8.2
	c0,0,4.2,0.6,6.2-2.1c0,0-5.4,2.5-6.8-6.3c0,0,6.9-4.5,4.4-3.9c-8.4,2.1-9-22.7-9-24.8c0.6,32.4-8.4,24.4-8.4,24.4l3.6,5
	c0,0-1.3,5-6.3,4.8c-3.5-0.2,4.1,7.5,5.8,3.9c0,0-2.1,6.3-8.7,7.5c0,0,2.4,3.8,7.4,1.3c0,0-3.6,8.9-5.9,8.8
	c-1.6-0.1-2.3,0.1-2.5,0.4c-5.7-4.8-9.8-9.7-12.3-15v128.4h1367.4v-40.9C1366.6,128.7,502.2,165.4,146.6,101.6L146.6,101.6z
	 M19,58.6c0,0-1.2,0.5-2.8,1.2c-1-0.7-1.9-1.4-2.8-2.1C15.2,58.5,17.1,58.8,19,58.6L19,58.6z M26.5,0.2c0-0.1,0-0.1,0-0.2V0.2z"/>
</svg>
