<svg id="rocket" xmlns="http://www.w3.org/2000/svg" viewBox="0 0 114.67 132.69"><defs><style>.flame{fill:#f5911f;}.rocketPart{fill:#323333;}</style></defs><title>rocket</title><path class="flame" d="M57.13,105.35A17.54,17.54,0,0,0,39.59,87.81c-8.14,0-11.79,8.68-16.94,13.06A23.07,23.07,0,0,1,29,100c.45,0,.88,0,1.32.06-2.77,2-4.74,5.33-8.64,5.14.73.12,3.72,0,6.92.21-3.65.94-5.17,5.08-9.31,4.9.68.1,3.72,0,6.72.23-.84,3.25-2.69,10-4.17,11.85C20.11,124.63,33,118.3,35.5,119a37.71,37.71,0,0,1,1,3.74c-.21-1.21,4.07-4.83,4.07-8,0-.22-.05-.42-.07-.63a52.79,52.79,0,0,1,2,7.49c-.26-1.59,4.92-6.37,4.92-10.55,0-.12,0-.24,0-.36a23.6,23.6,0,0,1,2.5,8.85C51.49,113.78,57.13,111.2,57.13,105.35Z"/><path class="rocketPart" d="M81.17,90.32h0c27.27-44,40.44-81.62,29.89-89S69.61,19.08,37.51,59.72l-.13-.12C30.12,54.36,14.4,63.66,0,80.85l.11.08c10.65-11.09,21-11.85,25.9-6.05-1.84,2.52-3.67,5.07-5.49,7.67-2,2.89-4.33,6-6.25,8.91,0,0-.06,3.17,3.36,1.76,6.85-2.83,23.72-7.09,30.55-2.31,12.17,8.53,9.25,22.76,8.55,29.19-.44,4.07,2.64,2.46,2.64,2.46q3.05-4.17,6.09-8.49c1.83-2.61,3.61-5.22,5.36-7.81,7,2.71,9.74,12.67,3,26.36l.11.08C85.18,113.3,88.57,95.35,81.17,90.32Z"/></svg>